<svg xmlns="http://www.w3.org/2000/svg" xmlns:xlink="http://www.w3.org/1999/xlink" width="1080" zoomAndPan="magnify" viewBox="0 0 810 1439.999935" height="1920" preserveAspectRatio="xMidYMid meet" version="1.0"><defs><clipPath id="43a261e7c7"><path d="M 402.570312 553.980469 L 566.96875 553.980469 L 566.96875 721.921875 L 402.570312 721.921875 Z M 402.570312 553.980469 " clip-rule="nonzero"/></clipPath></defs><path fill="#000000" d="M 308.539062 600.492188 C 310.660156 601.703125 311.113281 604.035156 312.085938 606.132812 C 313.242188 608.617188 314.757812 611.050781 316.042969 613.496094 C 318.957031 619.046875 321.878906 624.59375 324.800781 630.140625 C 330.582031 641.101562 336.375 652.058594 342.152344 663.019531 C 343.011719 664.652344 343.886719 666.339844 344.042969 668.175781 C 344.460938 673.105469 336.460938 678.648438 332.730469 680.945312 C 323.253906 686.796875 314.09375 691.148438 307.582031 700.71875 C 306.566406 702.214844 305.625 703.8125 305.25 705.585938 C 304.324219 709.949219 308.578125 715.96875 310.429688 719.765625 C 312.882812 724.800781 315.523438 729.742188 318.34375 734.582031 C 324.011719 744.304688 330.402344 753.609375 337.496094 762.347656 C 356.085938 785.25 379.636719 804.34375 406.910156 815.882812 C 408.800781 816.683594 420.46875 804.25 422.175781 802.25 C 426.53125 797.15625 430.292969 791.617188 435.148438 786.957031 C 441.761719 780.609375 447.1875 778.011719 455.273438 783.636719 C 471.402344 794.847656 487.867188 805.574219 504.644531 815.789062 C 527.730469 829.847656 494.222656 865.5 479.28125 871.898438 C 446.375 885.984375 407.429688 873.78125 377.804688 857.472656 C 317.96875 824.535156 271.636719 767.855469 251.261719 702.671875 C 246.425781 687.203125 242.976562 670.976562 244.574219 654.847656 C 246.933594 631.054688 262.738281 610.414062 285.542969 602.863281 C 291.644531 600.84375 298.058594 599.761719 304.488281 599.730469 C 305.707031 599.726562 306.96875 599.761719 308.085938 600.261719 C 308.242188 600.332031 308.394531 600.410156 308.539062 600.492188 " fill-opacity="1" fill-rule="nonzero"/><g clip-path="url(#43a261e7c7)"><path fill="#000000" d="M 552.964844 650.316406 C 545.078125 632.734375 534.238281 616.792969 520.734375 602.941406 C 507.230469 589.082031 491.578125 577.832031 474.203125 569.492188 C 456.304688 560.90625 437.164062 555.707031 417.3125 554.035156 C 413.132812 553.683594 409.128906 554.953125 406.339844 557.523438 C 404.179688 559.503906 402.996094 562.074219 402.996094 564.753906 C 403 570.761719 408.445312 575.933594 415.402344 576.527344 C 484.902344 582.378906 540.414062 639.285156 544.402344 708.90625 L 544.402344 708.910156 C 544.816406 715.875 549.851562 721.453125 555.855469 721.609375 C 556.117188 721.613281 556.375 721.613281 556.632812 721.597656 C 559.035156 721.453125 561.332031 720.359375 563.175781 718.457031 C 565.816406 715.734375 567.1875 711.769531 566.941406 707.578125 C 565.789062 687.691406 561.085938 668.429688 552.964844 650.316406 " fill-opacity="1" fill-rule="nonzero"/></g><path fill="#000000" d="M 483.523438 639.195312 C 472.78125 628.175781 460.347656 619.195312 446.558594 612.5 C 432.363281 605.609375 417.175781 601.367188 401.417969 599.894531 C 397.511719 599.523438 393.777344 600.667969 391.183594 603.039062 C 389.226562 604.824219 388.148438 607.136719 388.152344 609.546875 L 388.121094 611.621094 L 388.121094 611.660156 C 388.128906 614.402344 389.355469 617.023438 391.582031 619.035156 C 393.644531 620.902344 396.355469 622.089844 399.269531 622.367188 C 452.925781 627.390625 494.585938 670.054688 498.113281 723.820312 L 498.113281 723.828125 C 498.40625 726.734375 499.453125 729.503906 501.265625 731.613281 C 503.222656 733.886719 505.820312 735.183594 508.566406 735.257812 L 510.683594 735.289062 C 510.914062 735.292969 511.144531 735.289062 511.375 735.277344 C 513.539062 735.148438 515.609375 734.15625 517.269531 732.429688 C 519.707031 729.894531 520.953125 726.191406 520.683594 722.277344 C 519.617188 706.488281 515.769531 691.199219 509.25 676.832031 C 502.914062 662.878906 494.257812 650.210938 483.523438 639.195312 " fill-opacity="1" fill-rule="nonzero"/><path fill="#000000" d="M 461.304688 702.359375 C 457.023438 693.175781 451.253906 684.828125 444.15625 677.546875 C 437.058594 670.261719 428.859375 664.277344 419.792969 659.757812 C 410.46875 655.113281 400.484375 652.152344 390.121094 650.960938 C 386.636719 650.554688 383.191406 651.535156 380.914062 653.582031 C 379.269531 655.054688 378.367188 656.960938 378.371094 658.953125 L 378.304688 664.320312 L 378.304688 664.363281 C 378.316406 666.660156 379.347656 668.859375 381.203125 670.554688 C 382.886719 672.097656 385.128906 673.101562 387.507812 673.382812 C 419.074219 677.019531 444.027344 702.628906 446.84375 734.273438 L 446.847656 734.277344 C 447.066406 736.660156 448.015625 738.921875 449.511719 740.648438 C 451.15625 742.546875 453.328125 743.632812 455.625 743.707031 L 461.039062 743.777344 C 461.230469 743.78125 461.425781 743.777344 461.613281 743.769531 C 463.398438 743.664062 465.105469 742.828125 466.472656 741.378906 C 468.582031 739.152344 469.648438 735.738281 469.335938 732.25 C 468.410156 721.855469 465.707031 711.796875 461.304688 702.359375 " fill-opacity="1" fill-rule="nonzero"/></svg>