<svg xmlns="http://www.w3.org/2000/svg" xmlns:xlink="http://www.w3.org/1999/xlink" width="1080" zoomAndPan="magnify" viewBox="0 0 810 1439.999935" height="1920" preserveAspectRatio="xMidYMid meet" version="1.0"><defs><clipPath id="d60621947f"><path d="M 243 506.332031 L 567 506.332031 L 567 933.832031 L 243 933.832031 Z M 243 506.332031 " clip-rule="nonzero"/></clipPath></defs><g clip-path="url(#d60621947f)"><path fill="#000000" d="M 566.789062 614.914062 C 566.789062 614.832031 566.789062 614.746094 566.789062 614.660156 C 566.789062 614.574219 566.789062 614.488281 566.703125 614.488281 C 566.703125 614.402344 566.703125 614.316406 566.617188 614.230469 C 566.617188 614.144531 566.53125 614.0625 566.53125 614.0625 C 566.53125 613.976562 566.449219 613.890625 566.449219 613.804688 C 566.363281 613.71875 566.363281 613.71875 566.363281 613.632812 L 566.191406 613.460938 L 566.019531 613.292969 L 565.933594 613.207031 L 565.847656 613.207031 C 565.765625 613.121094 565.679688 613.121094 565.679688 613.035156 L 565.507812 612.949219 L 565.25 612.863281 L 565.078125 612.777344 L 564.824219 612.777344 C 564.738281 612.777344 564.652344 612.777344 564.566406 612.777344 L 504.226562 612.777344 C 499.613281 572.082031 482.347656 506.332031 419.785156 506.332031 C 402.605469 506.332031 388.847656 511.289062 377.652344 519.242188 C 365.34375 522.492188 354.234375 529.074219 345.429688 538.222656 C 325.601562 558.570312 316.710938 589.863281 312.609375 612.949219 L 272.183594 612.949219 C 272.097656 612.949219 272.011719 612.949219 272.011719 612.949219 L 271.84375 613.035156 C 271.757812 613.035156 271.671875 613.035156 271.585938 613.121094 L 271.242188 613.292969 L 271.074219 613.375 L 270.902344 613.546875 L 270.816406 613.71875 C 270.730469 613.804688 270.730469 613.890625 270.644531 613.976562 L 263.210938 625.6875 L 245.433594 625.6875 C 244.152344 625.6875 243.210938 626.714844 243.210938 627.910156 L 243.210938 931.609375 C 243.210938 932.890625 244.234375 933.832031 245.433594 933.832031 L 537.558594 933.832031 C 537.730469 933.832031 537.902344 933.832031 538.074219 933.746094 L 538.242188 933.746094 C 538.328125 933.660156 538.5 933.660156 538.585938 933.574219 L 538.757812 933.488281 C 538.925781 933.402344 539.011719 933.316406 539.183594 933.148438 L 539.269531 933.0625 C 539.355469 932.976562 539.441406 932.804688 539.523438 932.632812 C 539.523438 932.632812 539.523438 932.632812 539.609375 932.546875 L 550.636719 911.6875 L 564.480469 912.113281 C 565.078125 912.113281 565.679688 911.855469 566.105469 911.515625 C 566.53125 911.085938 566.789062 910.488281 566.789062 909.890625 L 566.789062 614.914062 C 566.789062 615 566.789062 615 566.789062 614.914062 Z M 547.046875 908.949219 L 539.867188 922.460938 L 539.867188 631.675781 L 547.046875 635.519531 Z M 548.753906 631.332031 L 538.757812 625.945312 C 538.414062 625.773438 538.074219 625.6875 537.730469 625.6875 L 482.519531 625.6875 C 482.261719 623.039062 481.921875 620.21875 481.492188 617.394531 L 560.039062 617.394531 Z M 379.617188 523.34375 C 385.511719 521.890625 391.496094 521.121094 397.5625 521.207031 C 416.964844 521.207031 433.203125 527.960938 446.023438 541.300781 C 463.886719 559.9375 472.175781 588.496094 476.109375 612.863281 L 337.824219 612.863281 C 340.386719 593.96875 346.027344 568.148438 358.421875 547.457031 C 364.402344 537.28125 371.496094 529.246094 379.617188 523.34375 Z M 476.707031 617.308594 C 477.132812 620.132812 477.476562 622.953125 477.734375 625.601562 L 315.34375 625.601562 C 315.6875 622.953125 316.113281 620.132812 316.542969 617.308594 Z M 419.785156 510.777344 C 445.9375 510.777344 466.367188 523.089844 480.46875 547.371094 C 492.519531 568.148438 497.644531 593.96875 499.867188 612.863281 L 480.808594 612.863281 C 477.21875 589.863281 468.84375 558.570312 449.359375 538.222656 C 435.769531 523.945312 418.332031 516.675781 397.648438 516.675781 C 395.171875 516.675781 392.777344 516.761719 390.386719 517.019531 C 399.53125 512.742188 409.613281 510.605469 419.785156 510.777344 Z M 348.675781 541.300781 C 354.234375 535.570312 360.8125 530.785156 367.992188 527.449219 C 345.601562 550.277344 336.710938 586.699219 333.207031 612.863281 L 317.3125 612.863281 C 321.667969 588.496094 330.472656 559.9375 348.675781 541.300781 Z M 273.722656 617.308594 L 311.925781 617.308594 C 311.5 620.132812 311.070312 622.953125 310.730469 625.601562 L 268.421875 625.601562 Z M 535.335938 929.300781 L 247.742188 929.300781 L 247.742188 630.136719 L 310.21875 630.136719 C 309.277344 638.597656 308.933594 645.867188 308.765625 650.996094 C 304.234375 652.195312 301.5 656.8125 302.695312 661.34375 C 303.890625 665.875 308.507812 668.609375 313.039062 667.414062 C 317.566406 666.214844 320.300781 661.597656 319.105469 657.066406 C 318.335938 654.160156 316.113281 651.851562 313.207031 651.082031 C 313.378906 645.953125 313.804688 638.683594 314.746094 630.136719 L 478.160156 630.136719 C 478.929688 638.683594 479.183594 645.953125 479.269531 651.082031 C 474.742188 652.363281 472.089844 656.980469 473.289062 661.511719 C 474.570312 666.042969 479.183594 668.695312 483.714844 667.5 C 488.246094 666.214844 490.894531 661.597656 489.699219 657.066406 C 488.929688 654.160156 486.621094 651.9375 483.714844 651.082031 C 483.628906 645.953125 483.375 638.683594 482.605469 630.136719 L 535.167969 630.136719 Z M 308.679688 659.289062 C 308.679688 660.574219 309.703125 661.511719 310.984375 661.511719 C 312.269531 661.511719 313.207031 660.488281 313.207031 659.203125 C 313.207031 659.121094 313.207031 658.007812 313.207031 655.957031 C 315.003906 657.238281 315.515625 659.71875 314.234375 661.511719 C 312.953125 663.308594 310.472656 663.820312 308.679688 662.539062 C 306.882812 661.257812 306.371094 658.777344 307.652344 656.980469 C 307.910156 656.554688 308.25 656.210938 308.679688 655.957031 C 308.679688 658.09375 308.679688 659.289062 308.679688 659.289062 Z M 485.59375 659.289062 C 485.59375 661.511719 483.800781 663.308594 481.664062 663.308594 C 479.441406 663.308594 477.648438 661.511719 477.648438 659.375 C 477.648438 658.09375 478.246094 656.8125 479.355469 656.042969 C 479.355469 658.007812 479.269531 659.121094 479.269531 659.203125 C 479.183594 660.488281 480.210938 661.511719 481.40625 661.511719 L 481.492188 661.511719 C 482.691406 661.511719 483.714844 660.574219 483.714844 659.375 C 483.714844 659.289062 483.800781 658.09375 483.800781 655.957031 C 484.910156 656.726562 485.59375 657.921875 485.59375 659.289062 Z M 551.578125 907.324219 L 551.578125 635.007812 L 562.34375 621.585938 L 562.34375 907.753906 Z M 551.578125 907.324219 " fill-opacity="1" fill-rule="nonzero"/></g></svg>