<svg xmlns="http://www.w3.org/2000/svg" xmlns:xlink="http://www.w3.org/1999/xlink" width="1080" zoomAndPan="magnify" viewBox="0 0 810 809.999993" height="1080" preserveAspectRatio="xMidYMid meet" version="1.0"><defs><clipPath id="2a8c16c5d9"><path d="M 0.03125 81 L 801 81 L 801 213.855469 L 0.03125 213.855469 Z M 0.03125 81 " clip-rule="nonzero"/></clipPath><clipPath id="559e62e25e"><path d="M 0.03125 345 L 801 345 L 801 478 L 0.03125 478 Z M 0.03125 345 " clip-rule="nonzero"/></clipPath><clipPath id="2b8ef87893"><path d="M 0.03125 610 L 801 610 L 801 742.5 L 0.03125 742.5 Z M 0.03125 610 " clip-rule="nonzero"/></clipPath></defs><g clip-path="url(#2a8c16c5d9)"><path fill="#1e1e1e" d="M 734.789062 213.324219 L 66.226562 213.324219 C 29.664062 213.324219 0.03125 183.707031 0.03125 147.164062 C 0.03125 110.628906 29.664062 81.011719 66.226562 81.011719 L 734.789062 81.011719 C 771.355469 81.011719 800.988281 110.628906 800.988281 147.164062 C 800.988281 183.707031 771.355469 213.324219 734.789062 213.324219 " fill-opacity="1" fill-rule="nonzero"/></g><g clip-path="url(#559e62e25e)"><path fill="#1e1e1e" d="M 734.789062 477.976562 L 66.226562 477.976562 C 29.664062 477.976562 0.03125 448.359375 0.03125 411.8125 C 0.03125 375.269531 29.664062 345.648438 66.226562 345.648438 L 734.789062 345.648438 C 771.355469 345.648438 800.988281 375.269531 800.988281 411.8125 C 800.988281 448.359375 771.355469 477.976562 734.789062 477.976562 " fill-opacity="1" fill-rule="nonzero"/></g><g clip-path="url(#2b8ef87893)"><path fill="#1e1e1e" d="M 734.789062 742.625 L 66.226562 742.625 C 29.664062 742.625 0.03125 713.007812 0.03125 676.464844 C 0.03125 639.917969 29.664062 610.300781 66.226562 610.300781 L 734.789062 610.300781 C 771.355469 610.300781 800.988281 639.917969 800.988281 676.464844 C 800.988281 713.007812 771.355469 742.625 734.789062 742.625 " fill-opacity="1" fill-rule="nonzero"/></g></svg>