<svg xmlns="http://www.w3.org/2000/svg" xmlns:xlink="http://www.w3.org/1999/xlink" width="1080" zoomAndPan="magnify" viewBox="0 0 810 809.999993" height="1080" preserveAspectRatio="xMidYMid meet" version="1.0"><defs><clipPath id="02ed2abc89"><path d="M 243.015625 271.148438 L 566.996094 271.148438 L 566.996094 324.921875 L 243.015625 324.921875 Z M 243.015625 271.148438 " clip-rule="nonzero"/></clipPath><clipPath id="ca1d534398"><path d="M 243.015625 378 L 566.996094 378 L 566.996094 432 L 243.015625 432 Z M 243.015625 378 " clip-rule="nonzero"/></clipPath><clipPath id="215dc740f3"><path d="M 243.015625 485 L 566.996094 485 L 566.996094 538.898438 L 243.015625 538.898438 Z M 243.015625 485 " clip-rule="nonzero"/></clipPath></defs><g clip-path="url(#02ed2abc89)"><path fill="#1e1e1e" d="M 540.214844 324.707031 L 269.789062 324.707031 C 255 324.707031 243.015625 312.71875 243.015625 297.925781 C 243.015625 283.140625 255 271.152344 269.789062 271.152344 L 540.214844 271.152344 C 555.003906 271.152344 566.992188 283.140625 566.992188 297.925781 C 566.992188 312.71875 555.003906 324.707031 540.214844 324.707031 " fill-opacity="1" fill-rule="nonzero"/></g><g clip-path="url(#ca1d534398)"><path fill="#1e1e1e" d="M 540.214844 431.828125 L 269.789062 431.828125 C 255 431.828125 243.015625 419.839844 243.015625 405.046875 C 243.015625 390.253906 255 378.269531 269.789062 378.269531 L 540.214844 378.269531 C 555.003906 378.269531 566.992188 390.253906 566.992188 405.046875 C 566.992188 419.839844 555.003906 431.828125 540.214844 431.828125 " fill-opacity="1" fill-rule="nonzero"/></g><g clip-path="url(#215dc740f3)"><path fill="#1e1e1e" d="M 540.214844 538.949219 L 269.789062 538.949219 C 255 538.949219 243.015625 526.960938 243.015625 512.167969 C 243.015625 497.375 255 485.386719 269.789062 485.386719 L 540.214844 485.386719 C 555.003906 485.386719 566.992188 497.375 566.992188 512.167969 C 566.992188 526.960938 555.003906 538.949219 540.214844 538.949219 " fill-opacity="1" fill-rule="nonzero"/></g></svg>